<svg xmlns="http://www.w3.org/2000/svg" id="Camada_1" data-name="Camada 1" viewBox="0 0 1193.52 434.61"><defs><style>.cls-1{fill:#fff;}</style></defs><path class="cls-1" d="M74.27,129c-5-7.22-7.56-17.81-7.56-31.47s2.54-24.18,7.56-31.3a24.33,24.33,0,0,1,20.9-10.89c12.1,0,20.42,6.35,24.74,18.88h69.51c-4.85-23.13-15.51-41.42-31.69-54.38C141.28,6.69,120.69,0,96.54,0,77.8,0,60.91,4,46.36,11.9a84.67,84.67,0,0,0-34.12,34C4.12,60.52,0,77.92,0,97.57c0,19.89,4.12,37.4,12.24,52.07a84.67,84.67,0,0,0,34.12,34c14.54,7.9,31.43,11.9,50.18,11.9,24.15,0,44.74-6.75,61.19-20,16.18-13.08,26.84-31.31,31.69-54.23H119.93c-4.11,12.54-12.43,18.89-24.76,18.89-8.78,0-15.81-3.72-20.9-11.07"></path><path class="cls-1" d="M573.18,87.5c-9.18-3.62-20.86-7-34.7-9.91-11.69-2.52-20.31-5-25.62-7.45-5.63-2.57-8.47-6.39-8.47-11.37a11,11,0,0,1,4.7-9.39c3-2.17,7.43-3.28,13.11-3.28,7.28,0,13.2,1.75,17.61,5.19a23.4,23.4,0,0,1,8.27,14.05h58.86c-2.43-19.31-10.7-35.12-24.6-47C568.17,6.16,548.4,0,523.57,0c-16.72,0-31.19,2.74-43,8.15S459.7,20.88,453.65,30a54.11,54.11,0,0,0-9.1,30.54c0,13,3.32,23.38,9.88,30.94A57.75,57.75,0,0,0,477.9,108a226,226,0,0,0,34.19,9.23c12.14,2.75,21,5.31,26.3,7.62,5.63,2.45,8.49,6.34,8.49,11.55a11.48,11.48,0,0,1-5.22,9.73c-3.36,2.4-7.95,3.62-13.62,3.62-7.28,0-13.48-1.8-18.43-5.34a21.5,21.5,0,0,1-8.85-14.24H437.42a61.57,61.57,0,0,0,12.93,32.92c7.75,10,18.48,18,31.89,23.74s29,8.68,46.14,8.68c16,0,30.18-2.58,42-7.65s21-12.05,27.41-20.8a49.17,49.17,0,0,0,9.6-29.63c0-13.65-3.45-24.59-10.24-32.5a61.39,61.39,0,0,0-24-17.41"></path><path class="cls-1" d="M833.2,0H767.86V31.82L766,28.71A56.3,56.3,0,0,0,744.08,7.78C734.65,2.62,723.26,0,710.22,0A75,75,0,0,0,669,11.86c-12.26,7.88-22.08,19.3-29.17,34S629.13,77.9,629.13,97.57s3.6,37.16,10.72,51.94,16.91,26.25,29.17,34.12a75,75,0,0,0,41.2,11.86c12.82,0,24.16-2.62,33.69-7.78A56.1,56.1,0,0,0,766,166.78l1.84-3.11v32h65.82V0ZM757.46,127.79a34.14,34.14,0,0,1-25.61,11,33.68,33.68,0,0,1-25.79-11.14c-6.79-7.36-10.23-17.46-10.23-30,0-12.79,3.44-22.9,10.24-30s15.47-10.78,25.78-10.78a34.12,34.12,0,0,1,25.61,11h0c6.9,7.26,10.4,17.31,10.4,29.87,0,12.8-3.5,23-10.4,30.22"></path><path class="cls-1" d="M415.21,0H349.88V31.82L348,28.71A56.37,56.37,0,0,0,326.1,7.78C316.67,2.62,305.27,0,292.23,0A75,75,0,0,0,251,11.86c-12.26,7.88-22.08,19.3-29.18,34S211.14,77.9,211.14,97.57s3.61,37.16,10.72,51.94,16.92,26.25,29.18,34.12a75,75,0,0,0,41.19,11.86c12.83,0,24.16-2.62,33.7-7.78A56.1,56.1,0,0,0,348,166.78l1.84-3.11v31.82H415.7V0ZM339.48,127.79a34.16,34.16,0,0,1-25.61,11,33.71,33.71,0,0,1-25.8-11.14c-6.78-7.36-10.22-17.46-10.22-30,0-12.79,3.44-22.9,10.23-30s15.48-10.78,25.79-10.78a34.12,34.12,0,0,1,25.61,11h0c6.9,7.26,10.4,17.31,10.4,29.87,0,12.8-3.5,23-10.4,30.22"></path><polygon class="cls-1" points="1063.2 239.12 1063.2 276.31 1063.2 304.28 1063.2 304.29 1063.2 369.44 1063.2 434.61 1128.36 434.61 1128.36 369.44 1128.36 304.29 1128.36 304.28 1193.52 304.28 1193.52 239.12 1063.2 239.12"></polygon><polygon class="cls-1" points="638.19 239.12 638.19 304.28 638.19 369.45 638.19 434.61 703.36 434.61 703.36 369.45 768.52 369.45 768.52 304.28 703.36 304.28 703.36 239.12 638.19 239.12"></polygon><rect class="cls-1" x="768.52" y="239.12" width="65.16" height="65.16"></rect><rect class="cls-1" x="768.52" y="369.45" width="65.16" height="65.15"></rect><polygon class="cls-1" points="133.32 239.12 133.32 304.28 68.16 304.28 68.16 369.45 133.32 369.45 133.32 434.61 198.48 434.61 198.48 369.45 198.48 304.28 198.48 239.12 133.32 239.12"></polygon><rect class="cls-1" x="3" y="369.45" width="65.16" height="65.16"></rect><rect class="cls-1" x="3" y="239.12" width="65.16" height="65.16"></rect><path class="cls-1" d="M506.5,367.55c-5-7.22-7.56-17.81-7.56-31.46s2.54-24.19,7.56-31.31a24.35,24.35,0,0,1,20.9-10.89c12.11,0,20.42,6.35,24.74,18.89h69.52c-4.86-23.13-15.52-41.43-31.69-54.39-16.46-13.19-37.05-19.88-61.2-19.88-18.74,0-35.63,4-50.18,11.9a84.73,84.73,0,0,0-34.12,34c-8.12,14.67-12.24,32.08-12.24,51.73,0,19.88,4.12,37.4,12.24,52.06a84.67,84.67,0,0,0,34.12,34C493.14,430,510,434,528.77,434c24.16,0,44.74-6.74,61.19-20,16.18-13.08,26.84-31.31,31.69-54.22H552.16c-4.1,12.53-12.43,18.89-24.76,18.89-8.78,0-15.81-3.73-20.9-11.08"></path><path class="cls-1" d="M415.21,239.12H349.88v31.82L348,267.83A56.51,56.51,0,0,0,326.1,246.9c-9.43-5.16-20.83-7.78-33.87-7.78A75,75,0,0,0,251,251c-12.26,7.88-22.08,19.3-29.18,34S211.14,317,211.14,336.69s3.61,37.16,10.72,51.94,16.92,26.25,29.18,34.12a74.94,74.94,0,0,0,41.19,11.86c12.83,0,24.16-2.62,33.7-7.78A56.14,56.14,0,0,0,348,405.91l1.84-3.12v31.82H415.7V239.12ZM339.48,366.91a34.16,34.16,0,0,1-25.61,10.95,33.71,33.71,0,0,1-25.8-11.14c-6.78-7.36-10.22-17.46-10.22-30,0-12.79,3.44-22.9,10.23-30s15.48-10.78,25.79-10.78a34.12,34.12,0,0,1,25.61,10.95h0c6.9,7.26,10.4,17.31,10.4,29.87,0,12.8-3.5,23-10.4,30.22"></path><path class="cls-1" d="M1029.25,283.78a83.6,83.6,0,0,0-34-33.1c-14.45-7.67-31.28-11.56-50-11.56-19,0-36,4-50.52,11.9a84.92,84.92,0,0,0-34.13,33.79c-8.11,14.54-12.23,32-12.23,51.88s4.17,37.41,12.4,52.06a85.69,85.69,0,0,0,34.3,34c14.55,7.89,31.43,11.9,50.18,11.9a102.56,102.56,0,0,0,42.86-8.84,88.68,88.68,0,0,0,32.1-24.28,83.27,83.27,0,0,0,16.86-33.93H967.19c-5,10-13.28,15.11-24.65,15.11-8.25,0-15.13-2.7-20.45-8s-8.34-13.43-9-24.16l-.07-1.05h127.59a122.53,122.53,0,0,0,.91-14.81c0-19.42-4.11-36.52-12.23-50.85m-54.48,35H913.19l.21-1.16c1.64-8.89,5.22-15.73,10.64-20.32s12.45-6.93,20.9-6.93,15.59,2.45,21.24,7.27,8.59,11.65,8.59,20.16Z"></path></svg>